# xmcd
#
# Track frame offsets:
#	150
#	9357
#	30348
#	43899
#	65490
#	85077
#	95009
#	111360
#	134751
#	149837
#	173216
#	186706
# Disc length: 2769 seconds
# Revision: 1
# Processed by: cddbd v1.5.1PL2 Copyright (c) Steve Scherf et al.
#
# Submitted via: libkcddb 0.20
#
DISCID=b40acf0c
DTITLE=West Of Memphis - Monkey Business
DYEAR=2006
DGENRE=Blues
TTITLE0=IF IT AIN'T ME (WHO ARE YOU THINKING OF)
TTITLE1=HEY BABY
TTITLE2=ROCKET 88
TTITLE3=MONKEY BUSINESS
TTITLE4=ROCK THIS HOUSE
TTITLE5=I WANT TO BE LOVED
TTITLE6=ITS TOO LATE BROTHER
TTITLE7=LIL' OL' GIRL
TTITLE8=SHE DON'T LOVE ME
TTITLE9=NEW GIRLFRIEND
TTITLE10=HOOCHIE COOHIE MAN
TTITLE11=IT AIN'T ME (WHO ARE YOU THINKING OF)
EXTD=
EXTT0=
EXTT1=
EXTT2=
EXTT3=
EXTT4=
EXTT5=
EXTT6=
EXTT7=
EXTT8=
EXTT9=
EXTT10=
EXTT11=
PLAYORDER=
